PathFileType	4	(x/y/z)	S06_P20_T63
DataRate	CameraRate	NumFrames	NumMarkers	Units	OrigDataRate	OrigDataStartFrame	OrigNumFrames
240	240	6	51	mm	240	267	355
Frame#	Time	Sternum			R.Acromium			L.Acromium			Top.Head			R.ASIS			L.ASIS			R.PSIS			L.PSIS			R.Great.Tro			L.Great.Tro			R.Iliac.Crest			L.Iliac.Crest			V.Sacral			R.Thigh.Upper.Post			R.Thigh.Lower.Ant			R.Thigh.Lower.Post			R.Thigh.Upper.Ant			R.Knee.Lat			R.Knee.Med			R.Shank.Upper.Post			R.Shank.Lower.Ant			R.Shank.Lower.Post			R.Shank.Upper.Ant			R.Ankle.Lat			R.Ankle.Med			R.Heel.Upper			R.Heel.Med			R.Heel.Lat			R.Toe.Lat			R.Toe.Med			R.Toe.Tip			L.Thigh.Upper.Post			L.Thigh.Lower.Ant			L.Thigh.Lower.Post			L.Thigh.Upper.Ant			L.Knee.Lat			L.Knee.Med			L.Shank.Upper.Post			L.Shank.Lower.Ant			L.Shank.Lower.Post			L.Shank.Upper.Ant			L.Ankle.Lat			L.Ankle.Med			L.Heel.Upper			L.Heel.Med			L.Heel.Lat			L.Toe.Lat			L.Toe.Med			L.Toe.Tip			Cervical.Spine			Back			
		X1	Y1	Z1	X2	Y2	Z2	X3	Y3	Z3	X4	Y4	Z4	X5	Y5	Z5	X6	Y6	Z6	X7	Y7	Z7	X8	Y8	Z8	X9	Y9	Z9	X10	Y10	Z10	X11	Y11	Z11	X12	Y12	Z12	X13	Y13	Z13	X14	Y14	Z14	X15	Y15	Z15	X16	Y16	Z16	X17	Y17	Z17	X18	Y18	Z18	X19	Y19	Z19	X20	Y20	Z20	X21	Y21	Z21	X22	Y22	Z22	X23	Y23	Z23	X24	Y24	Z24	X25	Y25	Z25	X26	Y26	Z26	X27	Y27	Z27	X28	Y28	Z28	X29	Y29	Z29	X30	Y30	Z30	X31	Y31	Z31	X32	Y32	Z32	X33	Y33	Z33	X34	Y34	Z34	X35	Y35	Z35	X36	Y36	Z36	X37	Y37	Z37	X38	Y38	Z38	X39	Y39	Z39	X40	Y40	Z40	X41	Y41	Z41	X42	Y42	Z42	X43	Y43	Z43	X44	Y44	Z44	X45	Y45	Z45	X46	Y46	Z46	X47	Y47	Z47	X48	Y48	Z48	X49	Y49	Z49	X50	Y50	Z50	X51	Y51	Z51	

267	1.1083	105.61	1279.8	311.11	-17.172	1486.7	476.24	-28.88	1481.6	122.35	-17.146	1803.2	293.44	47.986	1038.4	435.62	67.743	1042.4	183.23	-144.75	1060.9	331.31	-140.17	1066.1	251.43	-7.7519	968.15	480.97	-17.082	974.78	122.73	-34.576	1115.6	462.05	-0.36559	1115.9	144.96	-155.9	1028.8	292.54	57.608	725.03	488.52	134.67	659.98	463.88	68.663	637.16	473.96	124.02	750.65	471.14	99.111	534.69	463.69	121.14	534.58	335.06	-84.271	411.81	454.49	-92.939	325.51	428.56	-145.12	365.77	438.49	-33.678	372.33	446.03	-222.54	255.11	412.47	-205.71	246.67	320.99	-286.79	290.24	358.91	-306.92	267.51	326.5	-310.15	265.35	391.53	-223.69	111.28	428.44	-196.86	99.885	312.03	-149.28	52.305	356.23	101.34	724.58	147.24	160.61	660.1	214.17	101.55	635.52	167.62	152.83	752.41	190.48	106.89	543.26	184.87	121.4	555.22	305.21	72.013	315.67	193.31	137.26	255.8	204.54	66.934	244.07	210.84	137.89	326.25	192.26	114.33	105.71	215.88	116.74	112.03	309.19	39.256	69.703	254.53	41.717	42.844	287.58	48.058	43.821	225.74	228.92	47.371	201.62	239.14	58.099	318.63	313.55	75.266	272.14	-82.653	1537.7	300.72	-136.21	1264.7	303.95
268	1.1125	110.85	1280.1	311.26	-11.875	1487.2	476.29	-23.107	1481.9	122.35	-11.591	1803.7	293.25	53.096	1038.8	435.6	72.781	1043	183.16	-139.65	1061.3	331.21	-135.11	1066.6	251.32	-2.4161	968.6	480.9	-12.088	975.4	122.58	-29.522	1116	462	4.7886	1116.5	144.95	-150.86	1029.3	292.4	66.141	726.6	488.39	143.93	662.54	463.47	78.314	638.87	473.83	132.15	753.08	470.69	110.16	536.86	463.55	131.37	537	334.7	-72.687	413.11	455.04	-81.142	326.9	428.95	-133.44	366.88	439.35	-21.99	373.96	446.21	-210.83	256.83	413.31	-194.1	247.55	321.84	-275.73	290.33	359.29	-295.54	266.91	327.22	-298.69	265.57	392.26	-210.04	113.48	430.95	-183.14	100.82	314.78	-134.9	54.128	359.55	105.1	724.67	147.06	164.2	659.95	213.88	104.91	635.63	167.48	156.84	752.27	190.16	109.86	543.3	184.79	124.56	555.25	305.09	73.573	315.91	193.35	138.45	255.63	204.56	68.062	244.34	210.91	139.52	326.07	192.26	114.57	105.73	215.95	116.98	112.03	309.22	39.303	69.755	254.56	41.753	42.881	287.6	48.096	43.891	225.75	228.99	47.233	201.62	239.24	57.75	318.72	313.7	74.764	272.23	-77.117	1538.3	300.64	-130.97	1265.3	303.83
269	1.1167	116.09	1280.4	311.4	-6.5847	1487.7	476.35	-17.359	1482.3	122.35	-6.0291	1804.2	293.07	58.191	1039.3	435.58	77.811	1043.5	183.1	-134.58	1061.8	331.11	-130.06	1067.2	251.21	2.8805	969.11	480.82	-7.1201	976	122.45	-24.474	1116.4	461.95	9.935	1117.1	144.95	-145.82	1029.8	292.26	74.584	728.23	488.22	153.08	665.18	463.01	87.86	640.66	473.64	140.17	755.57	470.21	121.08	539.1	463.35	141.52	539.5	334.28	-61.133	414.29	455.52	-69.247	328.14	429.31	-121.71	367.77	440.11	-10.276	375.52	446.36	-198.93	258.19	414.09	-182.25	248.11	322.65	-264.51	289.96	359.6	-283.94	265.82	327.88	-287.03	265.31	392.94	-195.96	115.4	433.44	-168.96	101.5	317.5	-120	55.911	362.84	108.79	724.75	146.91	167.74	659.78	213.61	108.18	635.72	167.36	160.8	752.1	189.85	112.77	543.32	184.75	127.66	555.29	305	75.077	316.15	193.43	139.59	255.48	204.61	69.144	244.61	211	141.08	325.9	192.29	114.79	105.76	216.03	117.19	112.03	309.26	39.341	69.803	254.6	41.779	42.913	287.62	48.131	43.96	225.77	229.05	47.122	201.63	239.32	57.417	318.81	313.82	74.305	272.33	-71.591	1538.9	300.57	-125.73	1266	303.72
270	1.1208	121.31	1280.8	311.54	-1.2997	1488.3	476.42	-11.638	1482.7	122.37	-0.45997	1804.8	292.92	63.273	1039.9	435.56	82.838	1044.1	183.04	-129.52	1062.3	331.01	-125.01	1067.7	251.11	8.1413	969.66	480.74	-2.1754	976.58	122.34	-19.431	1116.9	461.89	15.076	1117.7	144.94	-140.78	1030.3	292.14	82.934	729.93	488	162.11	667.87	462.5	97.295	642.53	473.4	148.1	758.1	469.7	131.86	541.4	463.1	151.59	542.05	333.83	-49.615	415.34	455.94	-57.261	329.21	429.66	-109.94	368.45	440.79	1.458	376.99	446.48	-186.83	259.19	414.84	-170.17	248.33	323.42	-253.12	289.12	359.87	-272.12	264.24	328.51	-275.16	264.55	393.57	-181.49	117.01	435.88	-154.35	101.93	320.17	-104.61	57.629	366.08	112.43	724.81	146.79	171.23	659.59	213.34	111.38	635.81	167.27	164.72	751.9	189.56	115.6	543.35	184.74	130.69	555.32	304.94	76.527	316.39	193.52	140.69	255.33	204.66	70.184	244.88	211.11	142.59	325.73	192.34	115	105.8	216.12	117.39	112.04	309.32	39.371	69.85	254.65	41.796	42.939	287.64	48.163	44.028	225.8	229.1	47.035	201.65	239.38	57.098	318.92	313.93	73.882	272.44	-66.077	1539.5	300.52	-120.51	1266.7	303.62
271	1.125	126.53	1281.1	311.68	3.9798	1488.8	476.49	-5.9425	1483.1	122.4	5.1151	1805.4	292.77	68.344	1040.4	435.53	87.861	1044.6	182.99	-124.47	1062.9	330.92	-119.96	1068.3	251.01	13.37	970.26	480.66	2.7482	977.15	122.24	-14.393	1117.5	461.82	20.215	1118.4	144.93	-135.75	1030.9	292.02	91.19	731.69	487.75	171.03	670.61	461.94	106.62	644.47	473.13	155.92	760.67	469.15	142.49	543.76	462.8	161.56	544.65	333.35	-38.137	416.26	456.3	-45.19	330.13	429.99	-98.126	368.91	441.4	13.206	378.39	446.6	-174.52	259.83	415.54	-157.87	248.22	324.17	-241.55	287.84	360.11	-260.08	262.19	329.11	-263.07	263.32	394.17	-166.63	118.32	438.25	-139.34	102.13	322.76	-88.787	59.262	369.22	116.02	724.87	146.69	174.66	659.38	213.08	114.52	635.88	167.21	168.59	751.68	189.27	118.36	543.36	184.76	133.66	555.36	304.91	77.926	316.62	193.64	141.74	255.19	204.74	71.185	245.14	211.25	144.04	325.57	192.41	115.2	105.84	216.22	117.57	112.04	309.38	39.395	69.894	254.7	41.807	42.962	287.67	48.192	44.095	225.84	229.15	46.966	201.68	239.43	56.789	319.04	314.03	73.492	272.56	-60.574	1540.1	300.48	-115.3	1267.3	303.53
272	1.1292	131.74	1281.5	311.81	9.2541	1489.4	476.57	-0.273	1483.5	122.44	10.695	1805.9	292.65	73.405	1041	435.5	92.884	1045.2	182.93	-119.43	1063.4	330.82	-114.91	1068.9	250.91	18.571	970.9	480.58	7.6522	977.72	122.16	-9.3568	1118	461.76	25.354	1119	144.93	-130.72	1031.4	291.91	99.348	733.49	487.47	179.82	673.4	461.35	115.82	646.46	472.83	163.63	763.26	468.59	152.97	546.17	462.46	171.45	547.28	332.84	-26.702	417.06	456.6	-33.038	330.89	430.31	-86.282	369.16	441.94	24.963	379.69	446.71	-162.02	260.09	416.21	-145.34	247.79	324.88	-229.79	286.12	360.35	-247.8	259.72	329.7	-250.77	261.64	394.77	-151.43	119.32	440.55	-123.95	102.1	325.26	-72.554	60.793	372.24	119.57	724.92	146.61	178.05	659.16	212.84	117.61	635.95	167.17	172.43	751.45	189	121.06	543.38	184.8	136.58	555.4	304.9	79.276	316.86	193.78	142.76	255.06	204.82	72.15	245.4	211.41	145.45	325.41	192.49	115.39	105.88	216.33	117.74	112.05	309.46	39.414	69.938	254.75	41.812	42.983	287.69	48.22	44.163	225.88	229.19	46.91	201.71	239.47	56.488	319.16	314.11	73.127	272.68	-55.085	1540.8	300.45	-110.09	1268	303.44
